<svg width="21" height="20" viewBox="0 0 21 20" fill="none" xmlns="http://www.w3.org/2000/svg">
<path d="M9.4464 5.19994L6.62723 1.94578C6.30223 1.57078 5.7064 1.57244 5.3289 1.95078L3.01056 4.27328C2.32056 4.96411 2.12306 5.98994 2.52223 6.81244C4.90691 11.7499 8.88894 15.7375 13.8231 18.1291C14.6447 18.5283 15.6697 18.3308 16.3597 17.6399L18.6997 15.2958C19.0789 14.9166 19.0797 14.3174 18.7014 13.9924L15.4347 11.1883C15.0931 10.8949 14.5622 10.9333 14.2197 11.2766L13.0831 12.4149C13.0249 12.4759 12.9483 12.5161 12.865 12.5294C12.7818 12.5426 12.6965 12.5282 12.6222 12.4883C10.7643 11.4184 9.22306 9.87513 8.15556 8.01578C8.11559 7.9414 8.10111 7.85597 8.11436 7.77257C8.1276 7.68918 8.16784 7.61244 8.2289 7.55411L9.36223 6.41994C9.70556 6.07494 9.74306 5.54161 9.4464 5.19911V5.19994Z" stroke="#0066FF" stroke-linecap="round" stroke-linejoin="round"/>
</svg>
