<svg width="25" height="23" viewBox="0 0 25 23" fill="none" xmlns="http://www.w3.org/2000/svg">
<g clip-path="url(#clip0_43_584)">
<path fill-rule="evenodd" clip-rule="evenodd" d="M8.00895 1.00764C9.18195 0.957443 9.55595 0.946289 12.5439 0.946289C15.5319 0.946289 15.9059 0.958373 17.0779 1.00764C18.2499 1.0569 19.0499 1.23072 19.7499 1.48261C20.4829 1.74008 21.1479 2.14256 21.6979 2.66308C22.2579 3.17338 22.6899 3.79057 22.9659 4.47282C23.2379 5.12347 23.4239 5.86708 23.4779 6.95459C23.5319 8.04676 23.5439 8.39439 23.5439 11.1708C23.5439 13.9482 23.5309 14.2958 23.4779 15.3861C23.4249 16.4736 23.2379 17.2172 22.9659 17.8679C22.6899 18.5502 22.2572 19.1684 21.6979 19.6795C21.1479 20.2 20.4829 20.6015 19.7499 20.8581C19.0499 21.1109 18.2499 21.2838 17.0799 21.334C15.9059 21.3842 15.5319 21.3953 12.5439 21.3953C9.55595 21.3953 9.18195 21.3833 8.00895 21.334C6.83895 21.2847 6.03895 21.1109 5.33895 20.8581C4.60487 20.6015 3.93977 20.1993 3.38995 19.6795C2.83033 19.1689 2.39726 18.551 2.12095 17.8688C1.84995 17.2182 1.66395 16.4746 1.60995 15.387C1.55595 14.2949 1.54395 13.9472 1.54395 11.1708C1.54395 8.39346 1.55695 8.04583 1.60995 6.95645C1.66295 5.86708 1.84995 5.12347 2.12095 4.47282C2.39767 3.79064 2.83106 3.17274 3.39095 2.66215C3.93999 2.1421 4.60442 1.73957 5.33795 1.48261C6.03795 1.23072 6.83795 1.05783 8.00795 1.00764H8.00895ZM16.9889 2.84805C15.8289 2.79879 15.4809 2.78856 12.5439 2.78856C9.60695 2.78856 9.25894 2.79879 8.09895 2.84805C7.02595 2.8936 6.44395 3.05998 6.05595 3.20033C5.54295 3.38623 5.17595 3.60653 4.79095 3.96438C4.42599 4.2944 4.14513 4.69616 3.96895 5.1402C3.81795 5.50085 3.63895 6.04182 3.58995 7.03918C3.53695 8.1174 3.52595 8.44087 3.52595 11.1708C3.52595 13.9008 3.53695 14.2242 3.58995 15.3025C3.63895 16.2998 3.81795 16.8408 3.96895 17.2014C4.14495 17.6448 4.42595 18.0473 4.79095 18.3772C5.14595 18.7165 5.57895 18.9777 6.05595 19.1413C6.44395 19.2817 7.02595 19.448 8.09895 19.4936C9.25894 19.5428 9.60595 19.5531 12.5439 19.5531C15.4819 19.5531 15.8289 19.5428 16.9889 19.4936C18.0619 19.448 18.6439 19.2817 19.0319 19.1413C19.5449 18.9554 19.9119 18.7351 20.2969 18.3772C20.6619 18.0473 20.9429 17.6448 21.1189 17.2014C21.2699 16.8408 21.4489 16.2998 21.4979 15.3025C21.5509 14.2242 21.5619 13.9008 21.5619 11.1708C21.5619 8.44087 21.5509 8.1174 21.4979 7.03918C21.4489 6.04182 21.2699 5.50085 21.1189 5.1402C20.9189 4.66337 20.6819 4.32224 20.2969 3.96438C19.9419 3.62518 19.5096 3.36412 19.0319 3.20033C18.6439 3.05998 18.0619 2.8936 16.9889 2.84805ZM11.1389 14.3228C11.9236 14.6264 12.7973 14.6673 13.6109 14.4387C14.4244 14.21 15.1273 13.7259 15.5996 13.0691C16.0718 12.4122 16.284 11.6234 16.2 10.8372C16.116 10.0511 15.741 9.31643 15.1389 8.75876C14.7552 8.40227 14.2912 8.12931 13.7803 7.95952C13.2694 7.78973 12.7244 7.72734 12.1844 7.77685C11.6445 7.82635 11.1231 7.98651 10.6577 8.24579C10.1924 8.50508 9.79469 8.85705 9.49325 9.27635C9.19181 9.69566 8.99413 10.1719 8.91446 10.6707C8.83479 11.1695 8.8751 11.6786 9.03249 12.1612C9.18987 12.6438 9.46043 13.088 9.82467 13.4618C10.1889 13.8355 10.6378 14.1296 11.1389 14.3228ZM8.54595 7.45467C9.07097 6.96665 9.69427 6.57954 10.3802 6.31543C11.0662 6.05132 11.8014 5.91539 12.5439 5.91539C13.2864 5.91539 14.0217 6.05132 14.7076 6.31543C15.3936 6.57954 16.0169 6.96665 16.5419 7.45467C17.067 7.94268 17.4834 8.52203 17.7676 9.15965C18.0517 9.79727 18.198 10.4807 18.198 11.1708C18.198 11.861 18.0517 12.5444 17.7676 13.182C17.4834 13.8196 17.067 14.399 16.5419 14.887C15.4816 15.8726 14.0435 16.4262 12.5439 16.4262C11.0444 16.4262 9.60628 15.8726 8.54595 14.887C7.48561 13.9014 6.88992 12.5646 6.88992 11.1708C6.88992 9.77699 7.48561 8.44025 8.54595 7.45467ZM19.4519 6.69805C19.5821 6.58397 19.6862 6.44679 19.7582 6.29462C19.8303 6.14246 19.8688 5.9784 19.8714 5.81217C19.874 5.64594 19.8407 5.48091 19.7734 5.32686C19.7062 5.1728 19.6064 5.03286 19.4799 4.9153C19.3534 4.79775 19.2029 4.70497 19.0371 4.64247C18.8714 4.57997 18.6939 4.54902 18.515 4.55144C18.3362 4.55386 18.1597 4.58962 17.996 4.65658C17.8323 4.72354 17.6847 4.82036 17.5619 4.94129C17.3233 5.17648 17.1926 5.48888 17.1976 5.81217C17.2027 6.13546 17.3431 6.44418 17.5891 6.67281C17.8351 6.90143 18.1672 7.03195 18.515 7.03667C18.8628 7.04138 19.1989 6.91991 19.4519 6.69805Z" fill="#0066FF"/>
</g>
<defs>
<clipPath id="clip0_43_584">
<rect width="24" height="22.3081" fill="white" transform="translate(0.543945 0.0166016)"/>
</clipPath>
</defs>
</svg>
