<svg width="25" height="23" viewBox="0 0 25 23" fill="none" xmlns="http://www.w3.org/2000/svg">
<g clip-path="url(#clip0_43_586)">
<path fill-rule="evenodd" clip-rule="evenodd" d="M1.54395 2.65472C1.54395 2.20161 1.73759 1.76707 2.08228 1.44668C2.42698 1.12629 2.89448 0.946291 3.38195 0.946291H21.7039C21.9455 0.945925 22.1848 0.989851 22.4081 1.07555C22.6314 1.16126 22.8343 1.28706 23.0052 1.44575C23.1761 1.60444 23.3117 1.7929 23.4041 2.00036C23.4966 2.20781 23.5441 2.43017 23.5439 2.65472V19.6851C23.5442 19.9096 23.4968 20.1321 23.4045 20.3396C23.3122 20.5472 23.1768 20.7358 23.006 20.8946C22.8352 21.0535 22.6323 21.1795 22.4091 21.2654C22.1858 21.3513 21.9466 21.3955 21.7049 21.3953H3.38195C3.14049 21.3953 2.9014 21.3511 2.67834 21.2652C2.45528 21.1793 2.25262 21.0534 2.08193 20.8946C1.91124 20.7359 1.77588 20.5474 1.68357 20.3401C1.59126 20.1327 1.54381 19.9104 1.54395 19.686V2.65472ZM10.2519 8.74296H13.2309V10.1335C13.6609 9.33412 14.7609 8.61469 16.4139 8.61469C19.5829 8.61469 20.3339 10.2069 20.3339 13.1284V18.5399H17.1269V13.7939C17.1269 12.1301 16.6969 11.1913 15.6049 11.1913C14.0899 11.1913 13.4599 12.2035 13.4599 13.7939V18.5399H10.2519V8.74296ZM4.75195 18.4126H7.95995V8.61469H4.75195V18.4116V18.4126ZM8.41895 5.41906C8.42499 5.67437 8.37612 5.92823 8.27519 6.16574C8.17425 6.40325 8.0233 6.61964 7.83118 6.80219C7.63906 6.98474 7.40964 7.12978 7.1564 7.2288C6.90316 7.32783 6.63119 7.37884 6.35645 7.37884C6.08171 7.37884 5.80973 7.32783 5.55649 7.2288C5.30325 7.12978 5.07383 6.98474 4.88171 6.80219C4.68959 6.61964 4.53864 6.40325 4.43771 6.16574C4.33677 5.92823 4.2879 5.67437 4.29395 5.41906C4.30582 4.91792 4.52833 4.44103 4.91383 4.09051C5.29933 3.73999 5.81717 3.54371 6.35645 3.54371C6.89572 3.54371 7.41356 3.73999 7.79906 4.09051C8.18456 4.44103 8.40707 4.91792 8.41895 5.41906Z" fill="#0066FF"/>
<path d="M237.544 1195.36H468.544V550.282H237.544V1195.36ZM483.544 351.369C482.877 319.146 470.877 292.5 447.544 271.431C424.211 250.363 393.211 239.828 354.544 239.828C315.877 239.828 284.377 250.363 260.044 271.431C235.711 292.5 223.544 319.146 223.544 351.369C223.544 382.972 235.377 409.462 259.044 430.841C282.711 452.22 313.544 462.909 351.544 462.909H352.544C391.877 462.909 423.544 452.22 447.544 430.841C471.544 409.462 483.544 382.972 483.544 351.369ZM1068.54 1195.36H1299.54V825.415C1299.54 729.986 1275.21 657.795 1226.54 608.841C1177.88 559.887 1113.54 535.41 1033.54 535.41C942.877 535.41 873.211 571.661 824.544 644.162H826.544V550.282H595.544C597.544 591.18 597.544 806.205 595.544 1195.36H826.544V834.71C826.544 811.162 828.877 793.812 833.544 782.658C843.544 760.969 858.544 742.534 878.544 727.352C898.544 712.17 923.211 704.579 952.544 704.579C1029.88 704.579 1068.54 753.223 1068.54 850.511V1195.36ZM1536.54 267.713V1160.04C1536.54 1233.78 1508.38 1296.83 1452.04 1349.19C1395.71 1401.55 1327.88 1427.73 1248.54 1427.73H288.544C209.211 1427.73 141.377 1401.55 85.0439 1349.19C28.7106 1296.83 0.543945 1233.78 0.543945 1160.04V267.713C0.543945 193.973 28.7106 130.922 85.0439 78.5596C141.377 26.1976 209.211 0.0166016 288.544 0.0166016H1248.54C1327.88 0.0166016 1395.71 26.1976 1452.04 78.5596C1508.38 130.922 1536.54 193.973 1536.54 267.713Z" fill="#0066FF"/>
<path d="M196.608 0.249023C88.891 0.249023 0.730957 82.1921 0.730957 182.317V747.307C0.730957 847.43 88.889 929.345 196.608 929.345H804.449C912.167 929.345 1000.29 847.431 1000.29 747.307V182.317C1000.29 82.194 912.167 0.249023 804.449 0.249023H196.608ZM245.874 153.569C297.522 153.569 329.335 185.084 330.317 226.511C330.317 267.024 297.52 299.425 244.875 299.425H243.906C193.241 299.425 160.494 267.026 160.494 226.511C160.494 185.085 194.232 153.569 245.873 153.569H245.874ZM690.954 347.193C790.283 347.193 864.744 407.538 864.744 537.217V779.305H713.791V553.448C713.791 496.693 691.944 457.971 637.315 457.971C595.611 457.971 570.753 484.07 559.839 509.282C555.852 518.302 554.872 530.899 554.872 543.517V779.305H403.919C403.919 779.305 405.9 396.71 403.919 357.094H554.903V416.884C574.963 388.116 610.845 347.192 690.954 347.192V347.193ZM169.398 357.125H320.351V779.307H169.398V357.125Z" fill="#0066FF"/>
</g>
<defs>
<clipPath id="clip0_43_586">
<rect width="24" height="22.3081" fill="white" transform="translate(0.543945 0.0166016)"/>
</clipPath>
</defs>
</svg>
