<svg width="25" height="24" viewBox="0 0 25 24" fill="none" xmlns="http://www.w3.org/2000/svg">
<path fill-rule="evenodd" clip-rule="evenodd" d="M7.90137 10C7.90137 8.74022 8.40181 7.53204 9.29261 6.64124C10.1834 5.75045 11.3916 5.25 12.6514 5.25C13.9111 5.25 15.1193 5.75045 16.0101 6.64124C16.9009 7.53204 17.4014 8.74022 17.4014 10C17.4014 11.2598 16.9009 12.468 16.0101 13.3588C15.1193 14.2496 13.9111 14.75 12.6514 14.75C11.3916 14.75 10.1834 14.2496 9.29261 13.3588C8.40181 12.468 7.90137 11.2598 7.90137 10ZM12.6514 6.75C11.7894 6.75 10.9628 7.09241 10.3533 7.7019C9.74378 8.3114 9.40137 9.13805 9.40137 10C9.40137 10.862 9.74378 11.6886 10.3533 12.2981C10.9628 12.9076 11.7894 13.25 12.6514 13.25C13.5133 13.25 14.34 12.9076 14.9495 12.2981C15.559 11.6886 15.9014 10.862 15.9014 10C15.9014 9.13805 15.559 8.3114 14.9495 7.7019C14.34 7.09241 13.5133 6.75 12.6514 6.75Z" fill="#0066FF"/>
<path fill-rule="evenodd" clip-rule="evenodd" d="M4.17526 8.857C4.34618 6.7838 5.29048 4.85069 6.82067 3.44147C8.35086 2.03226 10.355 1.24999 12.4353 1.25H12.8673C14.9475 1.24999 16.9517 2.03226 18.4818 3.44147C20.012 4.85069 20.9563 6.7838 21.1273 8.857C21.3175 11.1663 20.604 13.4593 19.1373 15.253L14.3443 21.114C14.1391 21.3648 13.8808 21.567 13.588 21.7057C13.2953 21.8445 12.9753 21.9165 12.6513 21.9165C12.3272 21.9165 12.0073 21.8445 11.7145 21.7057C11.4217 21.567 11.1634 21.3648 10.9583 21.114L6.16526 15.253C4.69837 13.4593 3.98494 11.1663 4.17526 8.857ZM12.4353 2.75C10.7317 2.75026 9.09059 3.39103 7.83758 4.54512C6.58456 5.69921 5.81129 7.28225 5.67126 8.98C5.51286 10.9019 6.10654 12.8102 7.32726 14.303L12.1203 20.165C12.1847 20.2439 12.2658 20.3074 12.3579 20.351C12.4499 20.3947 12.5504 20.4173 12.6523 20.4173C12.7541 20.4173 12.8546 20.3947 12.9467 20.351C13.0387 20.3074 13.1198 20.2439 13.1843 20.165L17.9773 14.303C19.1973 12.8099 19.7902 10.9016 19.6313 8.98C19.4912 7.28208 18.7178 5.6989 17.4646 4.54478C16.2113 3.39066 14.5699 2.75001 12.8663 2.75H12.4343H12.4353Z" fill="#0066FF"/>
</svg>
