<svg width="22" height="21" viewBox="0 0 22 21" fill="none" xmlns="http://www.w3.org/2000/svg">
<path d="M19.0264 3.9375H3.27637C2.92827 3.9375 2.59443 4.07578 2.34829 4.32192C2.10215 4.56806 1.96387 4.9019 1.96387 5.25V15.75C1.96387 16.0981 2.10215 16.4319 2.34829 16.6781C2.59443 16.9242 2.92827 17.0625 3.27637 17.0625H19.0264C19.3745 17.0625 19.7083 16.9242 19.9544 16.6781C20.2006 16.4319 20.3389 16.0981 20.3389 15.75V5.25C20.3389 4.9019 20.2006 4.56806 19.9544 4.32192C19.7083 4.07578 19.3745 3.9375 19.0264 3.9375ZM17.5826 5.25L11.1514 9.69937L4.72012 5.25H17.5826ZM3.27637 15.75V5.84719L10.7773 11.0381C10.8872 11.1143 11.0177 11.1552 11.1514 11.1552C11.2851 11.1552 11.4156 11.1143 11.5254 11.0381L19.0264 5.84719V15.75H3.27637Z" fill="#0066FF"/>
</svg>
