<svg width="48" height="48" viewBox="0 0 48 48" fill="none" xmlns="http://www.w3.org/2000/svg">
<path d="M32.5 25.5C33.0523 25.5 33.5 25.0523 33.5 24.5C33.5 23.9477 33.0523 23.5 32.5 23.5L32.5 25.5ZM14.2929 23.7929C13.9024 24.1834 13.9024 24.8166 14.2929 25.2071L20.6569 31.5711C21.0474 31.9616 21.6805 31.9616 22.0711 31.5711C22.4616 31.1805 22.4616 30.5474 22.0711 30.1569L16.4142 24.5L22.0711 18.8431C22.4616 18.4526 22.4616 17.8195 22.0711 17.4289C21.6805 17.0384 21.0474 17.0384 20.6569 17.4289L14.2929 23.7929ZM32.5 23.5L15 23.5L15 25.5L32.5 25.5L32.5 23.5Z" fill="white" fill-opacity="0.3"/>
<circle cx="24" cy="24" r="23.75" stroke="white" stroke-opacity="0.3" stroke-width="0.5"/>
</svg>
