<svg width="48" height="48" viewBox="0 0 48 48" fill="none" xmlns="http://www.w3.org/2000/svg">
<path d="M15.5 23.5C14.9477 23.5 14.5 23.9477 14.5 24.5C14.5 25.0523 14.9477 25.5 15.5 25.5V23.5ZM33.7071 25.2071C34.0976 24.8166 34.0976 24.1834 33.7071 23.7929L27.3431 17.4289C26.9526 17.0384 26.3195 17.0384 25.9289 17.4289C25.5384 17.8195 25.5384 18.4526 25.9289 18.8431L31.5858 24.5L25.9289 30.1569C25.5384 30.5474 25.5384 31.1805 25.9289 31.5711C26.3195 31.9616 26.9526 31.9616 27.3431 31.5711L33.7071 25.2071ZM15.5 25.5H33V23.5H15.5V25.5Z" fill="white"/>
<circle cx="24" cy="24" r="23.75" stroke="white" stroke-width="0.5"/>
</svg>
