<svg width="67" height="114" viewBox="0 0 67 114" fill="none" xmlns="http://www.w3.org/2000/svg">
<path d="M0.23923 111.765C0.223709 112.317 0.658668 112.777 1.21073 112.793L10.2072 113.045C10.7592 113.061 11.2194 112.626 11.2349 112.074C11.2504 111.522 10.8155 111.062 10.2634 111.046L2.26655 110.821L2.49138 102.825C2.50691 102.273 2.07195 101.812 1.51988 101.797C0.967822 101.781 0.507702 102.216 0.492179 102.768L0.23923 111.765ZM64.7856 0.465171C58.6939 29.0874 35.9008 77.6507 0.551882 111.066L1.92579 112.52C37.5919 78.8043 60.5723 29.8693 66.7418 0.881509L64.7856 0.465171Z" fill="white"/>
</svg>
