<svg width="78" height="109" viewBox="0 0 78 109" fill="none" xmlns="http://www.w3.org/2000/svg">
<path d="M6.01638 0.384185C5.52721 0.127802 4.92282 0.316516 4.66643 0.80568L0.488429 8.77715C0.232045 9.26632 0.420752 9.87071 0.909924 10.1271C1.39909 10.3835 2.00348 10.1948 2.25987 9.7056L5.97365 2.61985L13.0594 6.33363C13.5486 6.59001 14.153 6.40131 14.4093 5.91213C14.6657 5.42297 14.477 4.81858 13.9878 4.5622L6.01638 0.384185ZM77.6644 107.251C54.6249 89.2082 21.0044 47.4042 6.5067 0.971861L4.5976 1.56795C19.2254 48.4169 53.0976 90.5525 76.4313 108.825L77.6644 107.251Z" fill="white"/>
</svg>
