<svg width="20" height="15" viewBox="0 0 20 15" fill="none" xmlns="http://www.w3.org/2000/svg">
<path d="M18.5 8.5C19.0523 8.5 19.5 8.05228 19.5 7.5C19.5 6.94772 19.0523 6.5 18.5 6.5L18.5 8.5ZM0.292893 6.79289C-0.0976314 7.18342 -0.0976315 7.81658 0.292892 8.20711L6.65685 14.5711C7.04738 14.9616 7.68054 14.9616 8.07107 14.5711C8.46159 14.1805 8.46159 13.5474 8.07107 13.1569L2.41421 7.5L8.07107 1.84314C8.46159 1.45262 8.46159 0.819456 8.07107 0.428931C7.68054 0.0384069 7.04738 0.0384068 6.65686 0.428931L0.292893 6.79289ZM18.5 6.5L1 6.5L1 8.5L18.5 8.5L18.5 6.5Z" fill="white" fill-opacity="0.3"/>
</svg>
