<svg width="75" height="110" viewBox="0 0 75 110" fill="none" xmlns="http://www.w3.org/2000/svg">
<path d="M74.332 2.86063C74.3858 2.31096 73.9838 1.82179 73.4341 1.76803L64.4769 0.891969C63.9272 0.838211 63.438 1.24022 63.3843 1.78988C63.3305 2.33954 63.7325 2.82871 64.2822 2.88247L72.2442 3.66119L71.4655 11.6232C71.4117 12.1729 71.8137 12.662 72.3634 12.7158C72.913 12.7696 73.4022 12.3675 73.456 11.8179L74.332 2.86063ZM2.22449 109.417C10.286 81.2864 36.3911 34.4202 73.9717 3.53586L72.7019 1.99071C34.7841 33.1522 8.46628 80.3762 0.301877 108.866L2.22449 109.417Z" fill="white"/>
</svg>
