<svg width="24" height="42" viewBox="0 0 24 42" fill="none" xmlns="http://www.w3.org/2000/svg">
<g filter="url(#filter0_d_23_325)">
<path d="M10.7466 32.9999C10.7466 33.5522 11.1943 33.9999 11.7466 33.9999C12.2989 33.9999 12.7466 33.5522 12.7466 32.9999H10.7466ZM12.4537 0.319505C12.0632 -0.0710198 11.43 -0.0710198 11.0395 0.319505L4.67551 6.68347C4.28499 7.07399 4.28499 7.70715 4.67551 8.09768C5.06604 8.4882 5.6992 8.4882 6.08973 8.09768L11.7466 2.44082L17.4034 8.09768C17.794 8.4882 18.4271 8.4882 18.8176 8.09768C19.2082 7.70715 19.2082 7.07399 18.8176 6.68347L12.4537 0.319505ZM12.7466 32.9999L12.7466 1.02661L10.7466 1.02661L10.7466 32.9999H12.7466Z" fill="white"/>
</g>
<defs>
<filter id="filter0_d_23_325" x="0.382614" y="0.0266113" width="22.7279" height="41.9734" filterUnits="userSpaceOnUse" color-interpolation-filters="sRGB">
<feFlood flood-opacity="0" result="BackgroundImageFix"/>
<feColorMatrix in="SourceAlpha" type="matrix" values="0 0 0 0 0 0 0 0 0 0 0 0 0 0 0 0 0 0 127 0" result="hardAlpha"/>
<feOffset dy="4"/>
<feGaussianBlur stdDeviation="2"/>
<feComposite in2="hardAlpha" operator="out"/>
<feColorMatrix type="matrix" values="0 0 0 0 0 0 0 0 0 0 0 0 0 0 0 0 0 0 0.25 0"/>
<feBlend mode="normal" in2="BackgroundImageFix" result="effect1_dropShadow_23_325"/>
<feBlend mode="normal" in="SourceGraphic" in2="effect1_dropShadow_23_325" result="shape"/>
</filter>
</defs>
</svg>
