<svg width="58" height="24" viewBox="0 0 58 24" fill="none" xmlns="http://www.w3.org/2000/svg">
<g filter="url(#filter0_d_23_327)">
<path d="M5.7865 6.78003C5.23421 6.78003 4.7865 7.22775 4.7865 7.78003C4.7865 8.33231 5.23421 8.78003 5.7865 8.78003L5.7865 6.78003ZM53.3636 8.48714C53.7541 8.09661 53.7541 7.46345 53.3636 7.07292L46.9996 0.708962C46.6091 0.318437 45.976 0.318437 45.5854 0.708962C45.1949 1.09949 45.1949 1.73265 45.5854 2.12318L51.2423 7.78003L45.5854 13.4369C45.1949 13.8274 45.1949 14.4606 45.5854 14.8511C45.976 15.2416 46.6091 15.2416 46.9996 14.8511L53.3636 8.48714ZM5.7865 8.78003L52.6565 8.78003L52.6565 6.78003L5.7865 6.78003L5.7865 8.78003Z" fill="white"/>
</g>
<defs>
<filter id="filter0_d_23_327" x="0.786495" y="0.416016" width="56.87" height="22.728" filterUnits="userSpaceOnUse" color-interpolation-filters="sRGB">
<feFlood flood-opacity="0" result="BackgroundImageFix"/>
<feColorMatrix in="SourceAlpha" type="matrix" values="0 0 0 0 0 0 0 0 0 0 0 0 0 0 0 0 0 0 127 0" result="hardAlpha"/>
<feOffset dy="4"/>
<feGaussianBlur stdDeviation="2"/>
<feComposite in2="hardAlpha" operator="out"/>
<feColorMatrix type="matrix" values="0 0 0 0 0 0 0 0 0 0 0 0 0 0 0 0 0 0 0.25 0"/>
<feBlend mode="normal" in2="BackgroundImageFix" result="effect1_dropShadow_23_327"/>
<feBlend mode="normal" in="SourceGraphic" in2="effect1_dropShadow_23_327" result="shape"/>
</filter>
</defs>
</svg>
