<svg width="57" height="24" viewBox="0 0 57 24" fill="none" xmlns="http://www.w3.org/2000/svg">
<g filter="url(#filter0_d_23_328)">
<path d="M51.9699 8.78003C52.5221 8.78003 52.9699 8.33231 52.9699 7.78003C52.9699 7.22775 52.5221 6.78003 51.9699 6.78003L51.9699 8.78003ZM4.39275 7.07292C4.00222 7.46345 4.00222 8.09661 4.39275 8.48714L10.7567 14.8511C11.1472 15.2416 11.7804 15.2416 12.1709 14.8511C12.5614 14.4606 12.5614 13.8274 12.1709 13.4369L6.51407 7.78003L12.1709 2.12318C12.5614 1.73265 12.5614 1.09949 12.1709 0.708962C11.7804 0.318437 11.1472 0.318437 10.7567 0.708962L4.39275 7.07292ZM51.9699 6.78003L5.09985 6.78003L5.09985 8.78003L51.9699 8.78003L51.9699 6.78003Z" fill="white"/>
</g>
<defs>
<filter id="filter0_d_23_328" x="0.0998535" y="0.416016" width="56.87" height="22.728" filterUnits="userSpaceOnUse" color-interpolation-filters="sRGB">
<feFlood flood-opacity="0" result="BackgroundImageFix"/>
<feColorMatrix in="SourceAlpha" type="matrix" values="0 0 0 0 0 0 0 0 0 0 0 0 0 0 0 0 0 0 127 0" result="hardAlpha"/>
<feOffset dy="4"/>
<feGaussianBlur stdDeviation="2"/>
<feComposite in2="hardAlpha" operator="out"/>
<feColorMatrix type="matrix" values="0 0 0 0 0 0 0 0 0 0 0 0 0 0 0 0 0 0 0.25 0"/>
<feBlend mode="normal" in2="BackgroundImageFix" result="effect1_dropShadow_23_328"/>
<feBlend mode="normal" in="SourceGraphic" in2="effect1_dropShadow_23_328" result="shape"/>
</filter>
</defs>
</svg>
