<svg width="76" height="111" viewBox="0 0 76 111" fill="none" xmlns="http://www.w3.org/2000/svg">
<path d="M69.9028 110.551C70.3878 110.816 70.9951 110.637 71.2594 110.152L75.5657 102.249C75.83 101.764 75.6511 101.157 75.1661 100.892C74.6812 100.628 74.0738 100.807 73.8095 101.292L69.9817 108.317L62.9569 104.489C62.4719 104.225 61.8646 104.404 61.6003 104.888C61.3361 105.373 61.515 105.981 61.9999 106.245L69.9028 110.551ZM-0.0079214 2.54055C22.7369 20.953 55.677 63.2952 69.422 109.956L71.3405 109.391C57.4722 62.3114 24.2857 19.6336 1.25048 0.986061L-0.0079214 2.54055Z" fill="white"/>
</svg>
