<svg width="24" height="22" viewBox="0 0 24 22" fill="none" xmlns="http://www.w3.org/2000/svg">
<path d="M19.2314 0.0166016C20.4194 0.0166016 21.4351 0.408635 22.2786 1.1927C23.1222 1.97677 23.5439 2.92089 23.5439 4.02508V17.3867C23.5439 18.4909 23.1222 19.435 22.2786 20.2191C21.4351 21.0031 20.4194 21.3952 19.2314 21.3952H16.4163V13.1138H19.3962L19.8454 9.8847H16.4163V7.82478C16.4163 7.30517 16.5336 6.91545 16.7682 6.65564C17.0028 6.39584 17.4595 6.26593 18.1383 6.26593L19.9652 6.25201V3.37092C19.3363 3.28741 18.4478 3.24565 17.2998 3.24565C15.9422 3.24565 14.8566 3.61681 14.043 4.35912C13.2294 5.10143 12.8226 6.14995 12.8226 7.50466V9.8847H9.8278V13.1138H12.8226V21.3952H4.85645C3.66851 21.3952 2.65278 21.0031 1.80924 20.2191C0.965712 19.435 0.543945 18.4909 0.543945 17.3867V4.02508C0.543945 2.92089 0.965712 1.97677 1.80924 1.1927C2.65278 0.408635 3.66851 0.0166016 4.85645 0.0166016H19.2314Z" fill="#0066FF"/>
</svg>
